<svg xmlns="http://www.w3.org/2000/svg" viewBox="0 0 1078.19 126.02"><defs><style>.cls-1{fill:#d10a1c;}.cls-2{fill:#bba602;}.cls-3{fill:#f19a96;}.cls-4{fill:#111;}</style></defs><g id="レイヤー_2"><g id="レイヤー_1-2"><path class="cls-1" d="M33.51,34.25a41.78,41.78,0,0,1,59.86,0l19.12-11a63.44,63.44,0,0,0-98.11,0Z"/><path class="cls-2" d="M103.68,52.1A41.8,41.8,0,0,1,73.74,104V126a63.45,63.45,0,0,0,49.06-85Z"/><path class="cls-1" d="M53.13,104A41.8,41.8,0,0,1,23.19,52.1l-19.12-11a63.45,63.45,0,0,0,49.06,85Z"/><path class="cls-3" d="M98.25,56.37a36.73,36.73,0,0,1-4.78-2.6,35.39,35.39,0,0,1,2.34-4.91c-4.38-2-11.11-4.11-17.28-2.1a17,17,0,0,0-4.63,2.37A17.28,17.28,0,0,0,74.72,44c0-6.49-4.08-12.24-7.34-15.79A36.29,36.29,0,0,1,63.44,32a35.76,35.76,0,0,1-3.95-3.75c-3.26,3.55-7.34,9.3-7.34,15.79A17.28,17.28,0,0,0,53,49.13a16.88,16.88,0,0,0-4.63-2.37c-6.17-2-12.9.1-17.28,2.1a35.39,35.39,0,0,1,2.34,4.91,36.73,36.73,0,0,1-4.78,2.6C31,60.56,35.2,66.22,41.37,68.23a17.48,17.48,0,0,0,5.13.8,17.3,17.3,0,0,0-3.68,3.67C39,78,38.93,85,39.48,89.79a35.12,35.12,0,0,1,5.39-.71,35,35,0,0,1,1,5.35c4.72-1,11.4-3.21,15.21-8.46a17.08,17.08,0,0,0,2.36-4.64A16.77,16.77,0,0,0,65.79,86c3.81,5.25,10.49,7.5,15.22,8.46a34.32,34.32,0,0,1,1-5.35,35.31,35.31,0,0,1,5.4.71C87.94,85,87.86,78,84.05,72.7A17.07,17.07,0,0,0,80.37,69a17.48,17.48,0,0,0,5.13-.8C91.68,66.22,95.88,60.56,98.25,56.37ZM75.3,66A2.46,2.46,0,0,1,73,64.26H65.26l5.46,5.46a2.55,2.55,0,0,1,2.85.44,2.47,2.47,0,0,1-3.49,3.5,2.46,2.46,0,0,1-.45-2.86l-5.45-5.46v7.72a2.47,2.47,0,1,1-1.52,0V65.34L57.2,70.8a2.47,2.47,0,1,1-3.94-.63,2.55,2.55,0,0,1,2.86-.45l5.46-5.46H53.87a2.47,2.47,0,1,1,0-1.52h7.71l-5.45-5.45a2.38,2.38,0,0,1-1.12.28,2.48,2.48,0,0,1-1.75-4.22,2.54,2.54,0,0,1,3.5,0,2.47,2.47,0,0,1,.44,2.86l5.46,5.46V54a2.47,2.47,0,1,1,1.52,0v7.71l5.45-5.45a2.36,2.36,0,0,1-.27-1.11,2.45,2.45,0,0,1,.72-1.75,2.53,2.53,0,0,1,3.49,0,2.48,2.48,0,0,1-1.75,4.22,2.37,2.37,0,0,1-1.11-.28l-5.45,5.45H73A2.47,2.47,0,1,1,75.3,66Z"/><path class="cls-4" d="M179.44,117.88v-41L140.83,16.09h29.61l22.13,37.54,21.82-37.54h29.76L205.69,76.83v41.05Z"/><path class="cls-4" d="M294.82,14.41c31.13,0,54.33,21.67,54.33,52.65s-23.2,52.65-54.33,52.65S240.34,98,240.34,67.06,263.69,14.41,294.82,14.41Zm0,23.2c-16.94,0-27.77,12.82-27.77,29.45s10.83,29.46,27.77,29.46,27.62-13,27.62-29.46S311.61,37.61,294.82,37.61Z"/><path class="cls-4" d="M365.48,117.88V16.09h26.25V95h40.9v22.89Z"/><path class="cls-4" d="M494,14.41c31.14,0,54.33,21.67,54.33,52.65S525.12,119.71,494,119.71,439.5,98,439.5,67.06,462.85,14.41,494,14.41Zm0,23.2c-16.94,0-27.77,12.82-27.77,29.45S477,96.52,494,96.52c16.79,0,27.63-13,27.63-29.46S510.77,37.61,494,37.61Z"/><path class="cls-4" d="M603,90.56c3.66,3.06,8.55,6,14.65,6,8.24,0,13.58-5.34,13.58-13.89V16.09h26.25V82.93c0,25.19-15.26,36.78-37.54,36.78-10.22,0-20.3-2.44-27.93-9.15Z"/><path class="cls-4" d="M785.17,117.88V16.09h51c22.9,0,35.41,15.41,35.41,33.88,0,18.31-12.51,33.42-35.41,33.42H811.42v34.49Zm47.46-79.66H811.42V61.11h21.21c7,0,12.21-4.42,12.21-11.29C844.84,42.8,839.65,38.22,832.63,38.22Z"/><path class="cls-4" d="M1052.85,117.88l-43-61.5v61.5H983.57V16.09h27l41.21,58.6V16.09h26.4V117.88Z"/><polygon class="cls-4" points="736.18 16.09 703.22 16.09 664.91 117.88 693.45 117.88 698.64 102.47 705.51 80.34 719.7 38.98 734.04 80.34 740.91 102.47 746.1 117.88 774.64 117.88 736.18 16.09"/><polygon class="cls-4" points="934.58 16.09 901.62 16.09 863.31 117.88 891.85 117.88 897.04 102.47 903.9 80.34 918.1 38.98 932.44 80.34 939.31 102.47 944.5 117.88 973.04 117.88 934.58 16.09"/><circle class="cls-1" cx="718.71" cy="104.58" r="13.7"/><circle class="cls-1" cx="918.17" cy="104.58" r="13.7"/></g></g></svg>
