<?xml version="1.0" encoding="UTF-8"?><svg id="_レイヤー_2" xmlns="http://www.w3.org/2000/svg" viewBox="0 0 132.32 131.44"><defs><style>.cls-1{fill:#d10a1c;}.cls-2{fill:#f19a96;}.cls-3{fill:#bba602;}</style></defs><g id="_レイヤー_1-2"><path class="cls-1" d="m34.95,35.73c7.92-8.12,18.97-13.17,31.21-13.17s23.29,5.05,31.21,13.17l19.94-11.52C105.18,9.43,86.77,0,66.16,0S27.14,9.43,15,24.21l19.94,11.52Z"/><path class="cls-3" d="m108.13,54.34c1.06,3.76,1.63,7.72,1.63,11.82,0,20.37-13.97,37.48-32.86,42.27v23.01c31.42-5.14,55.41-32.4,55.41-65.28,0-8.21-1.51-16.07-4.25-23.33l-19.94,11.51Z"/><path class="cls-1" d="m55.41,108.43c-18.88-4.79-32.86-21.89-32.86-42.27,0-4.1.58-8.06,1.63-11.82l-19.94-11.51c-2.74,7.26-4.24,15.12-4.24,23.33,0,32.88,23.99,60.14,55.41,65.28v-23.01Z"/><path class="cls-2" d="m102.47,58.79c-3.03-1.38-4.99-2.71-4.99-2.71,0,0,.8-2.23,2.44-5.12-4.57-2.08-11.59-4.28-18.03-2.19-1.76.57-3.37,1.44-4.83,2.47.53-1.71.86-3.5.86-5.35,0-6.77-4.26-12.76-7.65-16.47-2.25,2.45-4.12,3.9-4.12,3.9,0,0-1.87-1.45-4.12-3.9-3.4,3.71-7.65,9.7-7.65,16.47,0,1.85.32,3.65.86,5.35-1.46-1.03-3.06-1.9-4.83-2.47-6.44-2.09-13.45.11-18.03,2.19,1.64,2.9,2.44,5.12,2.44,5.12,0,0-1.96,1.33-4.99,2.71,2.48,4.37,6.86,10.28,13.3,12.37,1.76.57,3.57.82,5.36.84-1.44,1.07-2.75,2.33-3.84,3.83-3.98,5.48-4.06,12.83-3.49,17.82,3.26-.66,5.63-.74,5.63-.74,0,0,.66,2.27,1.04,5.58,4.92-1,11.89-3.35,15.87-8.82,1.09-1.5,1.88-3.14,2.45-4.83.57,1.69,1.36,3.34,2.45,4.83,3.98,5.48,10.95,7.82,15.87,8.82.37-3.31,1.03-5.58,1.03-5.58,0,0,2.37.07,5.63.74.57-4.99.49-12.34-3.49-17.82-1.09-1.5-2.41-2.76-3.84-3.83,1.79-.02,3.59-.26,5.36-.84,6.44-2.09,10.82-7.99,13.3-12.37Zm-23.94,10.02c-1.14,0-2.1-.75-2.44-1.78h-8.04l5.7,5.69c.96-.47,2.2-.32,2.98.46,1.01,1,1.01,2.64,0,3.64-.48.49-1.13.75-1.82.75s-1.33-.27-1.82-.76c-.81-.81-.95-2.02-.46-2.98l-5.69-5.69v8.05c1.03.34,1.78,1.29,1.78,2.44,0,1.42-1.16,2.58-2.58,2.58s-2.58-1.16-2.58-2.58c0-1.14.75-2.1,1.78-2.44v-8.05l-5.69,5.69c.49.97.34,2.18-.47,2.98-.49.49-1.13.75-1.82.75s-1.33-.27-1.82-.75c-1-1-1-2.64,0-3.64.78-.78,2.02-.92,2.98-.46l5.69-5.69h-8.04c-.34,1.03-1.3,1.78-2.44,1.78-1.42,0-2.57-1.16-2.57-2.58s1.15-2.57,2.57-2.57c1.14,0,2.1.75,2.44,1.78h8.04l-5.68-5.69c-.36.18-.75.29-1.16.29-.69,0-1.34-.27-1.82-.76-1-1-1-2.64,0-3.64.97-.97,2.67-.97,3.64,0,.81.81.96,2.02.47,2.98l5.69,5.69v-8.04c-1.03-.34-1.78-1.3-1.78-2.44,0-1.42,1.16-2.58,2.58-2.58s2.58,1.15,2.58,2.58c0,1.14-.75,2.1-1.78,2.44v8.04l5.68-5.69c-.18-.36-.29-.75-.29-1.16,0-.69.27-1.34.75-1.82.97-.97,2.67-.97,3.64,0,1,1,1,2.64,0,3.64-.49.49-1.13.75-1.82.75-.41,0-.81-.11-1.16-.29l-5.68,5.69h8.04c.34-1.03,1.3-1.78,2.44-1.78,1.42,0,2.58,1.15,2.58,2.57s-1.16,2.58-2.58,2.58Z"/></g></svg>